#!OML:ASF F:\VICON\USERDATA\INSTALL\rory3\rory3.ASF
:FULLY-SPECIFIED
:DEGREES
177
root -0.0943786 17.9521 -0.462016 3.18693 -10.5378 2.1855
lowerback -1.1122 -1.91754 -4.60953
upperback -1.35794 -2.52617 2.9222
thorax -0.444553 -1.22317 5.58835
lowerneck -29.7694 -0.308364 -8.9587
upperneck 3.60358 1.99121 6.26619
head 5.46572 1.33912 3.7323
rclavicle 9.95166e-015 2.54444e-014
rhumerus -32.0354 -1.05167 -79.6923
rradius 30.3423
rwrist 20.2462
rhand -17.6724 8.1517
rfingers 7.12502
rthumb 8.58647 -21.6537
lclavicle 9.95166e-015 2.54444e-014
lhumerus 51.1416 4.13877 48.6274
lradius 101.78
lwrist -16.2807
lhand -45.1844 24.8
lfingers 7.12502
lthumb -17.9611 53.9906
rfemur -8.37145 9.24959 13.9905
rtibia 26.1644
rfoot -17.911 -3.17943
rtoes 5.14902
lfemur 1.81084 -1.88689 -22.9262
ltibia 10.0817
lfoot -10.3439 6.35464
ltoes -13.0266
178
root -0.0935963 17.9511 -0.456253 3.1786 -10.6232 2.18977
lowerback -1.14415 -1.91101 -4.63605
upperback -1.40541 -2.51626 2.9734
thorax -0.473634 -1.21595 5.65725
lowerneck -29.7908 -0.297845 -8.98972
upperneck 3.6093 2.01441 6.29016
head 5.46819 1.35192 3.7484
rclavicle -3.11968e-014 1.51076e-014
rhumerus -32.0263 -1.01655 -79.6395
rradius 30.2392
rwrist 20.2802
rhand -17.735 8.44162
rfingers 7.12502
rthumb 8.52606 -21.3663
lclavicle -3.11968e-014 1.51076e-014
lhumerus 51.224 4.35378 48.624
lradius 101.832
lwrist -16.519
lhand -44.9791 25.1098
lfingers 7.12502
lthumb -17.7635 54.3185
rfemur -8.37419 9.31979 13.976
rtibia 26.1874
rfoot -17.9484 -3.12559
rtoes 5.34606
lfemur 1.89429 -1.80632 -22.95
ltibia 9.98657
lfoot -10.3449 6.34205
ltoes -12.9623
179
root -0.0940304 17.9505 -0.452431 3.17548 -10.6592 2.23552
lowerback -1.1243 -1.91256 -4.70787
upperback -1.48185 -2.51892 3.01247
thorax -0.558761 -1.21227 5.74169
lowerneck -29.8604 -0.31409 -9.02749
upperneck 3.63244 2.01098 6.29637
head 5.48483 1.35038 3.75742
rclavicle 4.46272e-014 -5.56597e-015
rhumerus -32.1379 -0.877639 -79.6153
rradius 30.2862
rwrist 20.1888
rhand -17.7728 8.51666
rfingers 7.12502
rthumb 8.48962 -21.2927
lclavicle 4.46272e-014 -5.56597e-015
lhumerus 51.3451 4.54294 48.6379
lradius 101.799
lwrist -16.5239
lhand -44.9668 24.8722
lfingers 7.12502
lthumb -17.7517 54.0819
rfemur -8.37842 9.30843 13.9171
rtibia 26.2107
rfoot -17.955 -3.05223
rtoes 5.69804
lfemur 1.98443 -1.77815 -23.0076
ltibia 9.88924
lfoot -10.3132 6.33007
ltoes -13.082
180
root -0.0937193 17.9496 -0.450115 3.17752 -10.6593 2.2496
lowerback -1.07613 -1.93229 -4.73767
upperback -1.52808 -2.54709 3.0571
thorax -0.626585 -1.22287 5.80796
lowerneck -30.1326 -0.346904 -9.17707
upperneck 3.76618 2.02273 6.4608
head 5.56194 1.36934 3.84447
rclavicle -9.31803e-015 2.38542e-015
rhumerus -32.1713 -0.778554 -79.6048
rradius 30.3237
rwrist 20.1145
rhand -17.7964 8.49731
rfingers 7.12502
rthumb 8.46679 -21.313
lclavicle -9.31803e-015 2.38542e-015
lhumerus 51.4966 4.74649 48.6173
lradius 101.673
lwrist -16.5994
lhand -45.0113 25.0123
lfingers 7.12502
lthumb -17.7945 54.2182
rfemur -8.38375 9.2808 13.9007
rtibia 26.2135
rfoot -17.9575 -3.07762
rtoes 5.361
lfemur 2.0371 -1.78424 -23.0221
ltibia 9.82539
lfoot -10.2917 6.31602
ltoes -13.222
181
root -0.0935429 17.9494 -0.444911 3.20309 -10.6853 2.2672
lowerback -1.1729 -1.92703 -4.7304
upperback -1.54438 -2.53647 3.04458
thorax -0.591412 -1.21833 5.7876
lowerneck -30.186 -0.38282 -9.21164
upperneck 3.72973 1.98366 6.54187
head 5.55959 1.35825 3.87308
rclavicle 5.68524e-014 -2.70347e-014
rhumerus -32.1697 -0.859724 -79.6182
rradius 30.3149
rwrist 20.1353
rhand -17.8381 8.57969
rfingers 7.12502
rthumb 8.42662 -21.2322
lclavicle 5.68524e-014 -2.70347e-014
lhumerus 51.7318 4.90069 48.652
lradius 101.602
lwrist -17.2805
lhand -44.6275 26.2039
lfingers 7.12502
lthumb -17.4252 55.4429
rfemur -8.41429 9.27378 13.8736
rtibia 26.2092
rfoot -17.9138 -3.12303
rtoes 5.00969
lfemur 2.03652 -1.76589 -23.0471
ltibia 9.77804
lfoot -10.2709 6.30365
ltoes -13.0978
182
root -0.0933583 17.9497 -0.439334 3.19434 -10.6974 2.24017
lowerback -1.25706 -1.92626 -4.68618
upperback -1.54668 -2.53248 3.05113
thorax -0.54861 -1.21795 5.76624
lowerneck -29.9576 -0.416011 -9.2566
upperneck 3.45323 1.93729 6.58022
head 5.44135 1.33926 3.87955
rclavicle 1.69775e-014 -4.77083e-015
rhumerus -32.2247 -0.79735 -79.6699
rradius 30.3973
rwrist 20.0468
rhand -17.958 8.62811
rfingers 7.12502
rthumb 8.3109 -21.1884
lclavicle 1.69775e-014 -4.77083e-015
lhumerus 51.944 5.04549 48.6736
lradius 101.333
lwrist -17.7018
lhand -44.9569 26.2522
lfingers 7.12502
lthumb -17.7422 55.4627
rfemur -8.37799 9.28017 13.9031
rtibia 26.2081
rfoot -17.8646 -3.13132
rtoes 5.03803
lfemur 2.11767 -1.75666 -23.0275
ltibia 9.7101
lfoot -10.294 6.31438
ltoes -12.953
183
root -0.0932517 17.9496 -0.434535 3.20965 -10.6738 2.23043
lowerback -1.30451 -1.93671 -4.67833
upperback -1.59755 -2.54482 3.0764
thorax -0.572094 -1.22222 5.78748
lowerneck -29.8525 -0.412947 -9.26757
upperneck 3.3989 1.93923 6.56206
head 5.40927 1.33777 3.87277
rclavicle -2.8712e-014 3.10104e-014
rhumerus -32.3702 -0.708633 -79.675
rradius 30.5173
rwrist 19.9915
rhand -17.9556 8.55375
rfingers 7.12502
rthumb 8.31322 -21.2627
lclavicle -2.8712e-014 3.10104e-014
lhumerus 52.0967 5.15346 48.6694
lradius 100.978
lwrist -17.38
lhand -45.7118 24.7938
lfingers 7.12502
lthumb -18.4685 53.9371
rfemur -8.37014 9.245 13.9106
rtibia 26.2218
rfoot -17.8413 -3.10229
rtoes 5.09349
lfemur 2.14922 -1.78549 -23.0231
ltibia 9.62402
lfoot -10.2814 6.39004
ltoes -12.9337
